<mxfile host="app.diagrams.net" agent="Mozilla/5.0 (Macintosh; Intel Mac OS X 10_15_7) AppleWebKit/537.36 (KHTML, like Gecko) Chrome/128.0.0.0 Safari/537.36" version="24.7.16">
  <diagram name="PÃ¡gina-1" id="P2Hj0HENZPF9Nt5xQf3A">
    <mxGraphModel dx="1434" dy="763" grid="1" gridSize="10" guides="1" tooltips="1" connect="1" arrows="1" fold="1" page="1" pageScale="1" pageWidth="827" pageHeight="1169" math="0" shadow="0">
      <root>
        <mxCell id="0" />
        <mxCell id="1" parent="0" />
        <mxCell id="-K-KbThQ99bbGYrgQH8d-4" value="" style="edgeStyle=orthogonalEdgeStyle;rounded=0;orthogonalLoop=1;jettySize=auto;html=1;" edge="1" parent="1" source="-K-KbThQ99bbGYrgQH8d-2" target="-K-KbThQ99bbGYrgQH8d-3">
          <mxGeometry relative="1" as="geometry" />
        </mxCell>
        <mxCell id="-K-KbThQ99bbGYrgQH8d-2" value="Inicio" style="strokeWidth=2;html=1;shape=mxgraph.flowchart.start_2;whiteSpace=wrap;" vertex="1" parent="1">
          <mxGeometry x="360" y="200" width="100" height="100" as="geometry" />
        </mxCell>
        <mxCell id="-K-KbThQ99bbGYrgQH8d-6" value="" style="edgeStyle=orthogonalEdgeStyle;rounded=0;orthogonalLoop=1;jettySize=auto;html=1;" edge="1" parent="1" source="-K-KbThQ99bbGYrgQH8d-3" target="-K-KbThQ99bbGYrgQH8d-5">
          <mxGeometry relative="1" as="geometry" />
        </mxCell>
        <mxCell id="-K-KbThQ99bbGYrgQH8d-3" value="Mostrar mensaje: &quot;Por favor, ingrese una palabra: &quot;" style="shape=parallelogram;perimeter=parallelogramPerimeter;whiteSpace=wrap;html=1;fixedSize=1;strokeWidth=2;" vertex="1" parent="1">
          <mxGeometry x="310" y="380" width="200" height="100" as="geometry" />
        </mxCell>
        <mxCell id="-K-KbThQ99bbGYrgQH8d-12" value="" style="edgeStyle=orthogonalEdgeStyle;rounded=0;orthogonalLoop=1;jettySize=auto;html=1;" edge="1" parent="1" source="-K-KbThQ99bbGYrgQH8d-5" target="-K-KbThQ99bbGYrgQH8d-11">
          <mxGeometry relative="1" as="geometry" />
        </mxCell>
        <mxCell id="-K-KbThQ99bbGYrgQH8d-5" value="Definir la variable cantidad_letras y asignarle la longitud de palabra asignada." style="rounded=1;whiteSpace=wrap;html=1;strokeWidth=2;" vertex="1" parent="1">
          <mxGeometry x="320" y="540" width="180" height="100" as="geometry" />
        </mxCell>
        <mxCell id="-K-KbThQ99bbGYrgQH8d-14" value="" style="edgeStyle=orthogonalEdgeStyle;rounded=0;orthogonalLoop=1;jettySize=auto;html=1;" edge="1" parent="1" source="-K-KbThQ99bbGYrgQH8d-11" target="-K-KbThQ99bbGYrgQH8d-13">
          <mxGeometry relative="1" as="geometry" />
        </mxCell>
        <mxCell id="-K-KbThQ99bbGYrgQH8d-11" value="Mostrar mensaje: &quot;La palabra ingresada tiene&quot;, cantidad_letras, &quot;letras&quot;.&quot;" style="shape=parallelogram;perimeter=parallelogramPerimeter;whiteSpace=wrap;html=1;fixedSize=1;strokeWidth=2;" vertex="1" parent="1">
          <mxGeometry x="290" y="700" width="240" height="100" as="geometry" />
        </mxCell>
        <mxCell id="-K-KbThQ99bbGYrgQH8d-13" value="Fin" style="strokeWidth=2;html=1;shape=mxgraph.flowchart.start_2;whiteSpace=wrap;" vertex="1" parent="1">
          <mxGeometry x="360" y="860" width="100" height="100" as="geometry" />
        </mxCell>
      </root>
    </mxGraphModel>
  </diagram>
</mxfile>
